<svg xmlns="http://www.w3.org/2000/svg" viewBox="0 0 64 64" role="img" aria-label="Camera icon">
  <rect width="64" height="64" rx="16" fill="#7c3aed"/>
  <path fill="#ffffff" d="M24.4 20.5c.9-2 1.4-3 2.3-3.6.8-.6 1.9-.9 3-.9h4.6c1.1 0 2.2.3 3 .9.9.6 1.4 1.6 2.3 3.6l.5 1.1c.3.6.5.9.8 1.1.3.2.7.3 1.4.3h2.2c3.6 0 6.5 2.9 6.5 6.5v12c0 3.6-2.9 6.5-6.5 6.5h-25c-3.6 0-6.5-2.9-6.5-6.5v-12c0-3.6 2.9-6.5 6.5-6.5h2.2c.7 0 1.1-.1 1.4-.3.3-.2.5-.5.8-1.1l.5-1.1Zm7.6 23c5 0 9-4 9-9s-4-9-9-9-9 4-9 9 4 9 9 9Zm0-4.5c-2.5 0-4.5-2-4.5-4.5s2-4.5 4.5-4.5 4.5 2 4.5 4.5-2 4.5-4.5 4.5Zm12.5-9.9c1 0 1.9-.8 1.9-1.9s-.8-1.9-1.9-1.9-1.9.8-1.9 1.9.8 1.9 1.9 1.9Z"/>
</svg>
